<?xml version="1.0" encoding="iso-8859-1"?>
<!-- Generator: Adobe Illustrator 19.0.0, SVG Export Plug-In . SVG Version: 6.00 Build 0)  -->
<svg version="1.1" id="Capa_1" xmlns="http://www.w3.org/2000/svg" xmlns:xlink="http://www.w3.org/1999/xlink" x="0px" y="0px"
	 viewBox="0 0 512 512" style="enable-background:new 0 0 512 512;" xml:space="preserve">
<g>
	<g>
		<g>
			<path style="fill:#5D647F;" d="M32,296h240c17.673,0,32-14.327,32-32V112c0-17.673-14.327-32-32-32H32C14.327,80,0,94.327,0,112
				l0,152C0,281.673,14.327,296,32,296z"/>
		</g>
		<g>
			<g>
				<path style="fill:#5C546A;" d="M168,264h96c4.422,0,8-3.582,8-8s-3.578-8-8-8h-96c-4.422,0-8,3.582-8,8S163.578,264,168,264z"/>
			</g>
		</g>
		<g>
			<g>
				<path style="fill:#5C546A;" d="M168,232h32c4.422,0,8-3.582,8-8s-3.578-8-8-8h-32c-4.422,0-8,3.582-8,8S163.578,232,168,232z"/>
			</g>
		</g>
		<g>
			<g>
				<path style="fill:#5C546A;" d="M104,232h32c4.422,0,8-3.582,8-8s-3.578-8-8-8h-32c-4.422,0-8,3.582-8,8S99.578,232,104,232z"/>
			</g>
		</g>
		<g>
			<g>
				<path style="fill:#5C546A;" d="M104,264h32c4.422,0,8-3.582,8-8s-3.578-8-8-8h-32c-4.422,0-8,3.582-8,8S99.578,264,104,264z"/>
			</g>
		</g>
		<g>
			<g>
				<path style="fill:#5C546A;" d="M40,232h32c4.422,0,8-3.582,8-8s-3.578-8-8-8H40c-4.422,0-8,3.582-8,8S35.578,232,40,232z"/>
			</g>
		</g>
		<g>
			<g>
				<path style="fill:#B8BAC0;" d="M264,192H40c-4.422,0-8-3.582-8-8s3.578-8,8-8h224c4.422,0,8,3.582,8,8S268.422,192,264,192z"/>
			</g>
		</g>
		<g>
			<rect x="0" y="112" style="fill:#5C546A;" width="304" height="40"/>
		</g>
	</g>
	<g>
		<path style="fill:#6C748D;" d="M480,432H240c-17.673,0-32-14.327-32-32V248c0-17.673,14.327-32,32-32h240
			c17.673,0,32,14.327,32,32v152C512,417.673,497.673,432,480,432z"/>
	</g>
	<g>
		<path style="fill:#FF4F19;" d="M424.002,301.165C418.138,307.809,409.558,312,400,312c-17.673,0-32-14.327-32-32s14.327-32,32-32
			c9.561,0,18.143,4.193,24.007,10.842"/>
	</g>
	<g>
		<path style="fill:#FFD100;" d="M304,312h-48c-8.837,0-16-7.163-16-16v-32c0-8.837,7.163-16,16-16h48c8.837,0,16,7.163,16,16v32
			C320,304.837,312.837,312,304,312z"/>
	</g>
	<g>
		<g>
			<path style="fill:#B8BAC0;" d="M280,368h-32c-4.422,0-8-3.582-8-8s3.578-8,8-8h32c4.422,0,8,3.582,8,8S284.422,368,280,368z"/>
		</g>
	</g>
	<g>
		<g>
			<path style="fill:#8A8895;" d="M344,400h-96c-4.422,0-8-3.582-8-8s3.578-8,8-8h96c4.422,0,8,3.582,8,8S348.422,400,344,400z"/>
		</g>
	</g>
	<g>
		<g>
			<path style="fill:#B8BAC0;" d="M344,368h-32c-4.422,0-8-3.582-8-8s3.578-8,8-8h32c4.422,0,8,3.582,8,8S348.422,368,344,368z"/>
		</g>
	</g>
	<g>
		<g>
			<path style="fill:#B8BAC0;" d="M408,368h-32c-4.422,0-8-3.582-8-8s3.578-8,8-8h32c4.422,0,8,3.582,8,8S412.422,368,408,368z"/>
		</g>
	</g>
	<g>
		<g>
			<path style="fill:#8A8895;" d="M408,400h-32c-4.422,0-8-3.582-8-8s3.578-8,8-8h32c4.422,0,8,3.582,8,8S412.422,400,408,400z"/>
		</g>
	</g>
	<g>
		<g>
			<path style="fill:#B8BAC0;" d="M472,368h-32c-4.422,0-8-3.582-8-8s3.578-8,8-8h32c4.422,0,8,3.582,8,8S476.422,368,472,368z"/>
		</g>
	</g>
	<g>
		<circle style="fill:#FFD100;" cx="448" cy="280" r="32"/>
	</g>
	<g>
		<polygon style="fill:#FF9500;" points="280,272 280,248 264,248 264,312 280,312 280,288 320,288 320,272 		"/>
	</g>
</g>
<g>
</g>
<g>
</g>
<g>
</g>
<g>
</g>
<g>
</g>
<g>
</g>
<g>
</g>
<g>
</g>
<g>
</g>
<g>
</g>
<g>
</g>
<g>
</g>
<g>
</g>
<g>
</g>
<g>
</g>
</svg>
